<svg xmlns="http://www.w3.org/2000/svg" xmlns:xlink="http://www.w3.org/1999/xlink" contentStyleType="text/css" height="1083px" preserveAspectRatio="none" style="width:232px;height:1083px;background:#FFFFFF;" version="1.1" viewBox="0 0 232 1083" width="232px" zoomAndPan="magnify"><defs/><g><ellipse cx="116.2148" cy="20" fill="#222222" rx="10" ry="10" style="stroke:#222222;stroke-width:1.0;"/><rect fill="none" height="310" style="stroke:#94A3B8;stroke-width:1.5;" width="203.125" x="14.6523" y="40"/><path d="M161.6104,40 L161.6104,47 L151.6104,57 L14.6523,57 " fill="none" style="stroke:#94A3B8;stroke-width:1.5;"/><text fill="#000000" font-family="Helvetica" font-size="14" lengthAdjust="spacing" textLength="136.958" x="17.6523" y="51.7803">Step 1 &#183; Compile pazy</text><rect fill="#F8FAFC" height="32" rx="12.5" ry="12.5" style="stroke:#475569;stroke-width:0.5;" width="169.7773" x="31.3262" y="74"/><text fill="#000000" font-family="Helvetica" font-size="12" lengthAdjust="spacing" textLength="149.7773" x="41.3262" y="93.2402">pazy-pulled 260701 (n=495)</text><rect fill="#F8FAFC" height="32" rx="12.5" ry="12.5" style="stroke:#475569;stroke-width:0.5;" width="157.7363" x="37.3467" y="126"/><text fill="#000000" font-family="Helvetica" font-size="12" lengthAdjust="spacing" textLength="137.7363" x="47.3467" y="145.2402">Manual curation (+4 / -26)</text><rect fill="#DBEAFE" height="32" rx="12.5" ry="12.5" style="stroke:#475569;stroke-width:0.5;" width="183.125" x="24.6523" y="178"/><text fill="#000000" font-family="Helvetica" font-size="12" lengthAdjust="spacing" textLength="163.125" x="34.6523" y="197.2402">cleaned_pazy-260701 (n=473)</text><rect fill="#F8FAFC" height="44" rx="12.5" ry="12.5" style="stroke:#475569;stroke-width:0.5;" width="141.7402" x="45.3447" y="230"/><text fill="#000000" font-family="Helvetica" font-size="12" lengthAdjust="spacing" textLength="117.3867" x="55.3447" y="249.2402">Retrieve by accession</text><text fill="#000000" font-family="Helvetica" font-size="12" lengthAdjust="spacing" textLength="121.7402" x="55.3447" y="261.2402">446 NCBI + 27 manual</text><rect fill="#F8FAFC" height="44" rx="12.5" ry="12.5" style="stroke:#475569;stroke-width:0.5;" width="146.0293" x="43.2002" y="294"/><text fill="#000000" font-family="Helvetica" font-size="12" lengthAdjust="spacing" textLength="77.3848" x="53.2002" y="313.2402">QC annotation</text><text fill="#000000" font-family="Helvetica" font-size="12" lengthAdjust="spacing" textLength="126.0293" x="53.2002" y="325.2402">(activity &#183; direct/indirect)</text><rect fill="none" height="182" style="stroke:#94A3B8;stroke-width:1.5;" width="197.3887" x="17.5205" y="360"/><path d="M148.9336,360 L148.9336,367 L138.9336,377 L17.5205,377 " fill="none" style="stroke:#94A3B8;stroke-width:1.5;"/><text fill="#000000" font-family="Helvetica" font-size="14" lengthAdjust="spacing" textLength="121.4131" x="20.5205" y="371.7803">Step 2.1 &#183; Clean V1</text><rect fill="#F8FAFC" height="32" rx="12.5" ry="12.5" style="stroke:#475569;stroke-width:0.5;" width="94.6953" x="68.8672" y="394"/><text fill="#000000" font-family="Helvetica" font-size="12" lengthAdjust="spacing" textLength="74.6953" x="78.8672" y="413.2402">Plasticome v1</text><rect fill="#F8FAFC" height="32" rx="12.5" ry="12.5" style="stroke:#475569;stroke-width:0.5;" width="177.3887" x="27.5205" y="446"/><text fill="#000000" font-family="Helvetica" font-size="12" lengthAdjust="spacing" textLength="157.3887" x="37.5205" y="465.2402">Fix accession &#183; Erickson seqs</text><rect fill="#DBEAFE" height="32" rx="12.5" ry="12.5" style="stroke:#475569;stroke-width:0.5;" width="163.3906" x="34.5195" y="498"/><text fill="#000000" font-family="Helvetica" font-size="12" lengthAdjust="spacing" textLength="143.3906" x="44.5195" y="517.2402">plasticome v1.1 (213 rows)</text><rect fill="#F8FAFC" height="44" rx="12.5" ry="12.5" style="stroke:#475569;stroke-width:0.5;" width="143.4043" x="44.5127" y="562"/><text fill="#000000" font-family="Helvetica" font-size="12" lengthAdjust="spacing" textLength="123.4043" x="54.5127" y="581.2402">Step 2.2 &#183; Union merge</text><text fill="#000000" font-family="Helvetica" font-size="12" lengthAdjust="spacing" textLength="120.7324" x="54.5127" y="593.2402">accession == retrieved</text><rect fill="#DBEAFE" height="32" rx="12.5" ry="12.5" style="stroke:#475569;stroke-width:0.5;" width="171.1191" x="30.6553" y="626"/><text fill="#000000" font-family="Helvetica" font-size="12" lengthAdjust="spacing" textLength="151.1191" x="40.6553" y="645.2402">union n=611 (398 &#183; 75 &#183; 138)</text><rect fill="#F8FAFC" height="44" rx="12.5" ry="12.5" style="stroke:#475569;stroke-width:0.5;" width="172.0566" x="30.1865" y="678"/><text fill="#000000" font-family="Helvetica" font-size="12" lengthAdjust="spacing" textLength="152.0566" x="40.1865" y="697.2402">Step 2.3 &#183; USEARCH cluster</text><text fill="#000000" font-family="Helvetica" font-size="12" lengthAdjust="spacing" textLength="96.7266" x="40.1865" y="709.2402">90% AA &#183; 3-phase</text><rect fill="#DBEAFE" height="32" rx="12.5" ry="12.5" style="stroke:#475569;stroke-width:0.5;" width="173.416" x="29.5068" y="742"/><text fill="#000000" font-family="Helvetica" font-size="12" lengthAdjust="spacing" textLength="153.416" x="39.5068" y="761.2402">412 clusters (273 singletons)</text><rect fill="#F8FAFC" height="44" rx="12.5" ry="12.5" style="stroke:#475569;stroke-width:0.5;" width="196.3555" x="18.0371" y="794"/><text fill="#000000" font-family="Helvetica" font-size="12" lengthAdjust="spacing" textLength="163.4355" x="28.0371" y="813.2402">Step 2.4 &#183; Align to components</text><text fill="#000000" font-family="Helvetica" font-size="12" lengthAdjust="spacing" textLength="176.3555" x="28.0371" y="825.2402">DIAMOND + USEARCH all-vs-all</text><rect fill="#F8FAFC" height="44" rx="12.5" ry="12.5" style="stroke:#475569;stroke-width:0.5;" width="175.4375" x="28.4961" y="858"/><text fill="#000000" font-family="Helvetica" font-size="12" lengthAdjust="spacing" textLength="155.4375" x="38.4961" y="877.2402">Step 2.5 &#183; Validate singletons</text><text fill="#000000" font-family="Helvetica" font-size="12" lengthAdjust="spacing" textLength="98.0918" x="38.4961" y="889.2402">PL14/458/467/539</text><rect fill="#F8FAFC" height="44" rx="12.5" ry="12.5" style="stroke:#475569;stroke-width:0.5;" width="210.4297" x="11" y="922"/><text fill="#000000" font-family="Helvetica" font-size="12" lengthAdjust="spacing" textLength="190.4297" x="21" y="941.2402">Step 2.6 &#183; Rebuild -&gt; recluster (412)</text><text fill="#000000" font-family="Helvetica" font-size="12" lengthAdjust="spacing" textLength="147.7383" x="21" y="953.2402">-&gt; re-align (46 components)</text><rect fill="#DCFCE7" height="44" rx="12.5" ry="12.5" style="stroke:#475569;stroke-width:0.5;" width="174.7402" x="28.8447" y="986"/><text fill="#000000" font-family="Helvetica" font-size="12" lengthAdjust="spacing" textLength="154.7402" x="38.8447" y="1005.2402">Output &#183; 412-centroid FASTA</text><text fill="#000000" font-family="Helvetica" font-size="12" lengthAdjust="spacing" textLength="68.0215" x="38.8447" y="1017.2402">for nr-search</text><ellipse cx="116.2148" cy="1061" fill="none" rx="11" ry="11" style="stroke:#222222;stroke-width:1.0;"/><ellipse cx="116.2148" cy="1061" fill="#222222" rx="6" ry="6" style="stroke:#222222;stroke-width:1.0;"/><line style="stroke:#181818;stroke-width:1.0;" x1="116.2148" x2="116.2148" y1="106" y2="126"/><polygon fill="#181818" points="112.2148,116,116.2148,126,120.2148,116,116.2148,120" style="stroke:#181818;stroke-width:1.0;"/><line style="stroke:#181818;stroke-width:1.0;" x1="116.2148" x2="116.2148" y1="158" y2="178"/><polygon fill="#181818" points="112.2148,168,116.2148,178,120.2148,168,116.2148,172" style="stroke:#181818;stroke-width:1.0;"/><line style="stroke:#181818;stroke-width:1.0;" x1="116.2148" x2="116.2148" y1="210" y2="230"/><polygon fill="#181818" points="112.2148,220,116.2148,230,120.2148,220,116.2148,224" style="stroke:#181818;stroke-width:1.0;"/><line style="stroke:#181818;stroke-width:1.0;" x1="116.2148" x2="116.2148" y1="274" y2="294"/><polygon fill="#181818" points="112.2148,284,116.2148,294,120.2148,284,116.2148,288" style="stroke:#181818;stroke-width:1.0;"/><line style="stroke:#181818;stroke-width:1.0;" x1="116.2148" x2="116.2148" y1="30" y2="74"/><polygon fill="#181818" points="112.2148,64,116.2148,74,120.2148,64,116.2148,68" style="stroke:#181818;stroke-width:1.0;"/><line style="stroke:#181818;stroke-width:1.0;" x1="116.2148" x2="116.2148" y1="426" y2="446"/><polygon fill="#181818" points="112.2148,436,116.2148,446,120.2148,436,116.2148,440" style="stroke:#181818;stroke-width:1.0;"/><line style="stroke:#181818;stroke-width:1.0;" x1="116.2148" x2="116.2148" y1="478" y2="498"/><polygon fill="#181818" points="112.2148,488,116.2148,498,120.2148,488,116.2148,492" style="stroke:#181818;stroke-width:1.0;"/><line style="stroke:#181818;stroke-width:1.0;" x1="116.2148" x2="116.2148" y1="338" y2="394"/><polygon fill="#181818" points="112.2148,384,116.2148,394,120.2148,384,116.2148,388" style="stroke:#181818;stroke-width:1.0;"/><line style="stroke:#181818;stroke-width:1.0;" x1="116.2148" x2="116.2148" y1="530" y2="562"/><polygon fill="#181818" points="112.2148,552,116.2148,562,120.2148,552,116.2148,556" style="stroke:#181818;stroke-width:1.0;"/><line style="stroke:#181818;stroke-width:1.0;" x1="116.2148" x2="116.2148" y1="606" y2="626"/><polygon fill="#181818" points="112.2148,616,116.2148,626,120.2148,616,116.2148,620" style="stroke:#181818;stroke-width:1.0;"/><line style="stroke:#181818;stroke-width:1.0;" x1="116.2148" x2="116.2148" y1="658" y2="678"/><polygon fill="#181818" points="112.2148,668,116.2148,678,120.2148,668,116.2148,672" style="stroke:#181818;stroke-width:1.0;"/><line style="stroke:#181818;stroke-width:1.0;" x1="116.2148" x2="116.2148" y1="722" y2="742"/><polygon fill="#181818" points="112.2148,732,116.2148,742,120.2148,732,116.2148,736" style="stroke:#181818;stroke-width:1.0;"/><line style="stroke:#181818;stroke-width:1.0;" x1="116.2148" x2="116.2148" y1="774" y2="794"/><polygon fill="#181818" points="112.2148,784,116.2148,794,120.2148,784,116.2148,788" style="stroke:#181818;stroke-width:1.0;"/><line style="stroke:#181818;stroke-width:1.0;" x1="116.2148" x2="116.2148" y1="838" y2="858"/><polygon fill="#181818" points="112.2148,848,116.2148,858,120.2148,848,116.2148,852" style="stroke:#181818;stroke-width:1.0;"/><line style="stroke:#181818;stroke-width:1.0;" x1="116.2148" x2="116.2148" y1="902" y2="922"/><polygon fill="#181818" points="112.2148,912,116.2148,922,120.2148,912,116.2148,916" style="stroke:#181818;stroke-width:1.0;"/><line style="stroke:#181818;stroke-width:1.0;" x1="116.2148" x2="116.2148" y1="966" y2="986"/><polygon fill="#181818" points="112.2148,976,116.2148,986,120.2148,976,116.2148,980" style="stroke:#181818;stroke-width:1.0;"/><line style="stroke:#181818;stroke-width:1.0;" x1="116.2148" x2="116.2148" y1="1030" y2="1050"/><polygon fill="#181818" points="112.2148,1040,116.2148,1050,120.2148,1040,116.2148,1044" style="stroke:#181818;stroke-width:1.0;"/><!--SRC=[RPFVRjem5CRlUOgZLfEegWpoXmIec9JILgsqqgxTUXLfCiu9jJ37cUsmiMdFjVizsUmK2jDsarWvt_bztx5ZinHKCyrMK6B56ccl5DaPMo5SeroZ5PnrpAk6SIlMmcxE6Lykj6ged2gfD1nNmufL_7zAfKlKMrMI3GRfw43bdbPOeUWlsIXXyNpOCTPLEwyIE7gqM4C8lt_1LArg8T7rVzySmOyEmDWlWxgH4ak8qdxM3w5BasGqE3dpvLj63PF06yrQMFSqWHu4KTgMZyiviWh7N28ZB3-ti0DA5hzG7j1gWMk4-SPDoD4OnoeeILAOJSzlu1IY35QjLQl_C0L6f6phML1tjoj-Xb9evBOdw6NX37x-CspqzcLS7mkUmksezv8PTp3A7T8wR7sknBTz7jzngGLV6hSs-CKSJbWVzZfwDmfZqEghQVt7MzV8CpwHXwrGBx2WFNqo0RtTXlAii-CshPWcQUYOyMZe0Td0FyDuwDWxSjoI7o_pX-arSDaOYxgWKVyDvBalnK7zp0pkmKaOxNJ6fSrYC88M4gqYSy1DV7CknOB0Ad3prOgGh2deuYQ_lPjTkBFPsJ8fWxK9t6lVtqPzObAKpEA1HK7txyEabmo6lIJDUeDujEz9VSy3pXiXImZUkMtP1eMkItrIKFlD-VXKNVUFx6ET-05vnJ4RtpMsRgn7kQQ0kwfMeeIh_F5ZNb3bBWJfm23J_FdCtGbL_m40]--></g></svg>